<?xml version="1.0" encoding="utf-8"?>
<!-- Generator: Adobe Illustrator 19.0.0, SVG Export Plug-In . SVG Version: 6.00 Build 0)  -->
<svg version="1.1" id="Layer_1" xmlns="http://www.w3.org/2000/svg" xmlns:xlink="http://www.w3.org/1999/xlink" x="0px" y="0px"
	 viewBox="0 0 50 50" style="enable-background:new 0 0 50 50;" xml:space="preserve">
<style type="text/css">
	.st0{fill:#E2E2E2;}
</style>
<g id="XMLID_2_">
	<path id="XMLID_10_" class="st0" d="M25,20.4c-2.5,0-4.6,2-4.6,4.6c0,2.5,2,4.6,4.6,4.6c2.5,0,4.6-2,4.6-4.6
		C29.6,22.5,27.5,20.4,25,20.4z"/>
	<path id="XMLID_6_" class="st0" d="M35.7,16.9c-0.3-0.6-0.5-1.1-1-1.6c-0.5-0.5-0.9-0.8-1.6-1c-0.5-0.2-1.2-0.4-2.5-0.5
		c-1.4-0.1-1.9-0.1-5.5-0.1c-3.7,0-4.1,0-5.5,0.1c-1.3,0.1-2.1,0.3-2.5,0.5c-0.6,0.3-1.1,0.5-1.6,1c-0.5,0.5-0.8,0.9-1,1.6
		c-0.2,0.5-0.4,1.2-0.5,2.5c-0.1,1.4-0.1,1.9-0.1,5.5c0,3.7,0,4.1,0.1,5.5c0.1,1.3,0.3,2.1,0.5,2.5c0.3,0.6,0.5,1.1,1,1.6
		c0.5,0.5,0.9,0.8,1.6,1c0.5,0.2,1.2,0.4,2.5,0.5c1.4,0.1,1.9,0.1,5.5,0.1c3.7,0,4.1,0,5.5-0.1c1.3-0.1,2.1-0.3,2.5-0.5
		c0.6-0.2,1.1-0.5,1.6-1c0.5-0.5,0.8-0.9,1-1.6c0.2-0.5,0.4-1.2,0.5-2.5c0.1-1.4,0.1-1.9,0.1-5.5c0-3.7,0-4.1-0.1-5.5
		C36.1,18.1,35.9,17.4,35.7,16.9z M25,32c-3.9,0-7-3.1-7-7c0-3.9,3.1-7,7-7s7,3.2,7,7C32,28.9,28.9,32,25,32z M32.3,19.3
		c-0.9,0-1.6-0.7-1.6-1.6c0-0.9,0.7-1.6,1.6-1.6c0.9,0,1.6,0.7,1.6,1.6C34,18.6,33.2,19.3,32.3,19.3z"/>
	<path id="XMLID_3_" class="st0" d="M42.7,7.3C38.2,2.8,31.9,0,25,0C18.1,0,11.9,2.8,7.3,7.3C2.8,11.8,0,18.1,0,25
		c0,13.8,11.2,25,25,25c6.9,0,13.2-2.8,17.7-7.3C47.2,38.1,50,31.9,50,25C50,18.1,47.2,11.8,42.7,7.3z M38.6,30.6
		c-0.1,1.5-0.3,2.5-0.6,3.3c-0.3,0.9-0.8,1.7-1.6,2.4c-0.8,0.8-1.5,1.2-2.4,1.6c-0.9,0.3-1.9,0.6-3.3,0.6c-1.5,0.1-1.9,0.1-5.7,0.1
		c-3.7,0-4.2,0-5.6-0.1c-1.5-0.1-2.5-0.3-3.3-0.6c-0.9-0.4-1.7-0.8-2.4-1.6c-0.8-0.8-1.2-1.5-1.6-2.4c-0.3-0.9-0.6-1.9-0.6-3.3
		c-0.1-1.5-0.1-1.9-0.1-5.6c0-3.7,0-4.2,0.1-5.7c0.1-1.5,0.3-2.5,0.6-3.3c0.4-0.9,0.8-1.7,1.6-2.4c0.8-0.8,1.5-1.2,2.4-1.6
		c0.9-0.3,1.9-0.6,3.3-0.6c1.5-0.1,1.9-0.1,5.6-0.1c3.7,0,4.2,0,5.7,0.1c1.5,0.1,2.5,0.3,3.3,0.6c0.9,0.3,1.7,0.8,2.4,1.6
		c0.8,0.8,1.2,1.5,1.6,2.4c0.3,0.9,0.6,1.9,0.6,3.3c0.1,1.5,0.1,1.9,0.1,5.7C38.7,28.7,38.7,29.2,38.6,30.6z"/>
</g>
</svg>
