<?xml version="1.0" encoding="utf-8"?>
<!-- Generator: Adobe Illustrator 19.0.0, SVG Export Plug-In . SVG Version: 6.00 Build 0)  -->
<svg version="1.1" id="Layer_1" xmlns="http://www.w3.org/2000/svg" xmlns:xlink="http://www.w3.org/1999/xlink" x="0px" y="0px"
	 viewBox="0 0 50 50" style="enable-background:new 0 0 50 50;" xml:space="preserve">
<style type="text/css">
	.st0{fill:url(#XMLID_2_);}
</style>
<g id="XMLID_1419_">
	<radialGradient id="XMLID_2_" cx="25" cy="25" r="25" gradientUnits="userSpaceOnUse">
		<stop  offset="0" style="stop-color:#fafafa"/>
		<stop  offset="0.7821" style="stop-color:#E2E2E2"/>
	</radialGradient>
	<path id="XMLID_3_" class="st0" d="M42.7,7.3C38.1,2.8,31.9,0,25,0C18.1,0,11.8,2.8,7.3,7.3C2.8,11.8,0,18.1,0,25
		c0,13.8,11.2,25,25,25c6.9,0,13.1-2.8,17.7-7.3C47.2,38.1,50,31.9,50,25C50,18.1,47.2,11.8,42.7,7.3z M32,15.2c0,0-2.4,0-3.3,0
		c-1.2,0-1.4,0.5-1.4,1.7c0,1,0,2.9,0,2.9H32l-0.5,5.1h-4.2v15.2h-6.1V24.9H18v-5.2h3.2c0,0,0-0.7,0-4.1c0-3.8,2-5.8,6.6-5.8
		c0.7,0,4.2,0,4.2,0V15.2z"/>
</g>
</svg>
